%
M48
M72
T01C0.0320
T02C0.0354
T03C0.0400
T04C0.0512
T05C0.0787
T06C0.1250
%
T01
X8100Y5100
X9100Y5100
X13600Y6600
X14600Y6600
X18100Y8600
X18100Y9600
X18100Y10600
X18100Y11600
X21100Y11600
X21100Y10600
X21100Y9600
X21100Y8600
X21600Y6100
X22600Y6100
X19100Y3100
X18100Y3100
X27100Y2100
X28100Y2100
X14600Y13600
X13600Y13600
X8975Y15100
X7975Y15100
X2600Y10100
X1600Y10100
X5631Y10090
X6631Y10090
X18100Y17100
X19100Y17100
X21600Y14100
X22600Y14100
X27100Y18100
X28100Y18100
T02
X10100Y11380
X10100Y8820
T03
X14600Y9100
X15600Y9100
X15600Y10100
X14600Y10100
X14600Y11100
X15600Y11100
T04
X22350Y11380
X22350Y8820
T05
X27100Y5900
X27100Y14300
T06
X7475Y13225
X7475Y6975
M30
